PathFileType	4	(X/Y/Z)	C:\Users\xlb\Desktop\20210112\20210112\bx_n_10_901.trc
DataRate	CameraRate	NumFrames	NumMarkers	Units	OrigDataRate	OrigDataStartFrame	OrigNumFrames
50.00	50.00	       8	43	mm	50.00	130	       518
Frame#	Time	Top.Head			R.Acromium			L.Acromium			Sternum			R.ASIS			L.ASIS			V.Sacral			R.Thigh.Upper			R.Thigh.Front			R.Thigh.Rear			R.Knee.Lat			R.Knee.Med			R.Shank.Upper			R.Shank.Front			R.Shank.Rear			R.Ankle.Lat			R.Midfoot.Lat			R.Toe.Lat			R.Toe.Tip			R.Toe.Med			R.Ankle.Med			R.Midfoot.Sup			R.Heel			L.Thigh.Upper			L.Thigh.Front			L.Thigh.Rear			L.Knee.Lat			L.Knee.Med			L.Shank.Upper			L.Shank.Front			L.Shank.Rear			L.Ankle.Lat			L.Midfoot.Lat			L.Toe.Lat			L.Toe.Tip			L.Toe.Med			L.Ankle.Med			L.Midfoot.Sup			L.Heel			origin1 front left			origin2 front right			origin 3 back right			origin 4 back leftt			
		X1	Y1	Z1	X2	Y2	Z2	X3	Y3	Z3	X4	Y4	Z4	X5	Y5	Z5	X6	Y6	Z6	X7	Y7	Z7	X8	Y8	Z8	X9	Y9	Z9	X10	Y10	Z10	X11	Y11	Z11	X12	Y12	Z12	X13	Y13	Z13	X14	Y14	Z14	X15	Y15	Z15	X16	Y16	Z16	X17	Y17	Z17	X18	Y18	Z18	X19	Y19	Z19	X20	Y20	Z20	X21	Y21	Z21	X22	Y22	Z22	X23	Y23	Z23	X24	Y24	Z24	X25	Y25	Z25	X26	Y26	Z26	X27	Y27	Z27	X28	Y28	Z28	X29	Y29	Z29	X30	Y30	Z30	X31	Y31	Z31	X32	Y32	Z32	X33	Y33	Z33	X34	Y34	Z34	X35	Y35	Z35	X36	Y36	Z36	X37	Y37	Z37	X38	Y38	Z38	X39	Y39	Z39	X40	Y40	Z40	X41	Y41	Z41	X42	Y42	Z42	X43	Y43	Z43	

130	2.580	-206.50519	97.94762	1319.73047	-402.37820	-65.93461	1118.47327	-413.99142	255.22260	1116.75159	-562.04822	76.74176	984.70764	-813.74744	-12.12512	975.49451	-813.19794	228.80171	994.65735	-986.83252	86.59029	1081.98694	-891.00378	-78.39771	850.78131	-798.56885	-12.34850	799.37726	-878.86493	-68.89503	735.38177	-852.54254	-38.55103	599.40283	-822.37811	70.47009	562.01593	-844.97668	-35.77225	551.58221	-779.23846	12.19207	522.49652	-858.76843	-46.39561	462.72021	-763.82159	-20.30091	200.14020	-648.58191	-68.81416	161.14902	-607.49426	-77.28575	155.12010	-548.70514	-27.45758	163.15643	-596.96649	24.89502	168.16986	-725.21661	66.18922	220.79317	-670.64929	52.23571	164.17616	-791.38068	40.48542	170.76511	-909.40283	282.34863	856.49481	-799.08594	205.69067	808.02966	-878.84619	278.38736	722.15295	-876.89520	254.40953	618.45496	-823.82080	143.03654	565.75031	-856.86450	249.48750	557.98944	-793.52167	205.33095	534.21100	-871.72839	262.03595	477.11896	-774.19391	232.93002	200.46193	-658.69983	299.03281	156.66124	-622.11224	305.99030	157.78458	-557.21735	252.52957	163.40450	-594.58563	219.45532	173.63145	-723.30524	160.67273	223.23587	-676.60229	176.66032	164.61543	-799.84387	185.03419	178.46075	-528.23718	303.77551	146.20906	-518.08405	-72.77293	142.94429	-876.23102	-78.11425	140.66740	-882.54083	296.12384	144.65634	
131	2.600	-212.66245	98.68203	1337.03955	-405.62558	-66.55453	1131.45374	-417.20593	256.57260	1129.17578	-562.88049	77.37344	993.09729	-812.25745	-12.41828	977.56598	-812.44543	228.74875	996.66663	-986.95062	85.94691	1081.61267	-889.22296	-78.76384	851.15570	-797.01624	-12.89586	799.52881	-877.46130	-69.38216	735.72217	-851.48926	-38.95463	599.59393	-821.41748	70.18518	562.19910	-844.04468	-36.14852	551.74841	-778.38135	11.72522	522.54517	-858.06793	-46.68716	462.81122	-763.80957	-20.39142	200.14684	-648.64221	-68.89236	161.07207	-607.50745	-77.39558	155.10638	-548.67822	-27.51226	163.17009	-597.01685	24.76608	168.29947	-725.21545	66.11777	220.72546	-670.64282	52.20520	164.22552	-791.41162	40.39365	170.79918	-908.46124	281.70853	856.79596	-797.88324	205.55992	808.43427	-878.01117	277.86542	722.47992	-876.07684	254.06837	618.77716	-822.98792	142.69757	565.86572	-856.20654	249.13695	558.19867	-792.85767	205.10480	534.25391	-871.14795	261.86536	477.43295	-774.19928	232.91376	200.51237	-658.74121	299.07074	156.61201	-622.17267	306.03778	157.75278	-557.28748	252.57504	163.40820	-594.64520	219.47519	173.67676	-723.24829	160.64153	223.23102	-676.62384	176.66104	164.60260	-799.81415	185.07816	178.39607	-528.23425	303.72977	146.23959	-518.11121	-72.79208	142.99225	-876.23157	-78.12119	140.66736	-882.55139	296.13257	144.64661	
132	2.620	-219.20291	99.40778	1354.46680	-409.11661	-67.31683	1144.72021	-420.61926	257.87402	1141.86646	-563.67529	78.05791	1001.71698	-810.62665	-12.72597	979.71393	-811.59473	228.73854	998.77222	-986.99176	85.30925	1081.22424	-887.36975	-79.11275	851.54492	-795.35095	-13.45362	799.69421	-875.99963	-69.84308	736.07251	-850.36053	-39.34031	599.80768	-820.39154	69.84707	562.36542	-843.03601	-36.49022	551.92694	-777.45227	11.23375	522.60315	-857.32581	-46.91246	462.88837	-763.78735	-20.45910	200.14401	-648.69727	-68.96022	160.97836	-607.52008	-77.50265	155.09039	-548.65240	-27.57879	163.18483	-597.05115	24.63523	168.44843	-725.20490	66.07159	220.67719	-670.64050	52.18101	164.28824	-791.44836	40.31824	170.84909	-907.40417	281.09280	857.13263	-796.56573	205.39355	808.84125	-877.06665	277.34979	722.83191	-875.14404	253.73296	619.13037	-822.07031	142.40390	565.98785	-855.45251	248.77135	558.38983	-792.11401	204.87610	534.31555	-870.48828	261.69739	477.77823	-774.19250	232.90401	200.56494	-658.77289	299.10794	156.58121	-622.22253	306.08090	157.72444	-557.35889	252.63399	163.42365	-594.67804	219.49930	173.73868	-723.16931	160.60443	223.22130	-676.65076	176.65407	164.59352	-799.77692	185.11151	178.33868	-528.23187	303.70322	146.27734	-518.13696	-72.80838	143.03471	-876.21191	-78.14985	140.68762	-882.56018	296.13217	144.63144	
133	2.640	-226.17389	100.11713	1372.04675	-412.97025	-68.09206	1158.18323	-424.22833	259.10147	1154.80981	-564.43066	78.79614	1010.56409	-808.86218	-13.04141	981.93536	-810.66150	228.76076	1000.96490	-986.95593	84.68629	1080.82117	-885.45331	-79.45204	851.96796	-793.56055	-14.01484	799.89050	-874.46552	-70.26494	736.43506	-849.14929	-39.70717	600.04712	-819.28687	69.47920	562.53247	-841.94714	-36.80310	552.13080	-776.44574	10.73187	522.68127	-856.52612	-47.10386	462.99069	-763.76031	-20.50576	200.13779	-648.74927	-69.01778	160.85992	-607.52850	-77.60817	155.07080	-548.63062	-27.65591	163.19690	-597.06964	24.50631	168.61014	-725.17706	66.04398	220.65431	-670.64435	52.16365	164.36133	-791.49561	40.26028	170.91136	-906.23499	280.50674	857.50281	-795.13904	205.21277	809.26459	-876.01721	276.84195	723.20953	-874.11108	253.41196	619.51361	-821.06940	142.15186	566.12744	-854.60669	248.40729	558.56903	-791.29810	204.65704	534.39001	-869.76624	261.52930	478.14920	-774.17487	232.89966	200.61768	-658.79779	299.13541	156.56808	-622.26331	306.12106	157.69865	-557.42523	252.70859	163.45348	-594.68445	219.53999	173.82106	-723.06604	160.56464	223.20676	-676.68073	176.63596	164.59175	-799.74048	185.13258	178.29163	-528.22980	303.69409	146.31332	-518.15649	-72.82177	143.06822	-876.17896	-78.19197	140.72342	-882.57129	296.11938	144.61154	
134	2.660	-233.62891	100.79791	1389.81079	-417.24365	-68.80469	1171.78503	-428.03137	260.24637	1167.98022	-565.14355	79.58971	1019.63647	-806.96790	-13.35410	984.22736	-809.66071	228.80267	1003.22827	-986.84143	84.08432	1080.40479	-883.46472	-79.78419	852.43994	-791.63342	-14.56950	800.13550	-872.83838	-70.63586	736.81543	-847.84387	-40.05196	600.31598	-818.08484	69.11885	562.72571	-840.76947	-37.09183	552.37061	-775.35553	10.24418	522.79169	-855.65149	-47.29625	463.15942	-763.73328	-20.53425	200.13510	-648.79919	-69.06488	160.71620	-607.52991	-77.71204	155.04601	-548.61450	-27.74214	163.20094	-597.07568	24.38423	168.77644	-725.12659	66.02747	220.65648	-670.65472	52.15472	164.43765	-791.55524	40.21911	170.97983	-904.95410	279.95526	857.90704	-793.60559	205.04456	809.71771	-874.86633	276.34576	723.61627	-872.99158	253.11372	619.92456	-819.98743	141.93370	566.29449	-853.67377	248.06621	558.74792	-790.41626	204.45721	534.46887	-868.99548	261.36212	478.53918	-774.14825	232.90086	200.66879	-658.81958	299.14728	156.56888	-622.29626	306.15906	157.67407	-557.48035	252.79993	163.49945	-594.66571	219.60957	173.92740	-722.94305	160.52539	223.18939	-676.71088	176.60622	164.60010	-799.71295	185.14026	178.25801	-528.22760	303.69962	146.34155	-518.16589	-72.83267	143.09109	-876.14075	-78.24081	140.77112	-882.58990	296.09213	144.58833	
135	2.680	-241.62094	101.43387	1407.77832	-421.93738	-69.42495	1185.49084	-432.02908	261.31601	1181.34583	-565.80945	80.44102	1028.93372	-804.94287	-13.64770	986.58514	-808.60266	228.85419	1005.54248	-986.64417	83.50645	1079.97913	-881.37762	-80.10500	852.96936	-789.56000	-15.10449	800.44336	-871.09436	-70.94607	737.22083	-846.43011	-40.36872	600.61761	-816.76593	68.81006	562.97253	-839.49072	-37.35812	552.65308	-774.17529	9.80154	522.94427	-854.68628	-47.51669	463.42776	-763.70892	-20.54747	200.14246	-648.84570	-69.10133	160.55505	-607.52271	-77.81205	155.01466	-548.60510	-27.83633	163.19128	-597.07336	24.27448	168.93909	-725.05182	66.01632	220.67807	-670.67053	52.15681	164.50732	-791.62604	40.19243	171.04700	-903.55975	279.44229	858.34686	-791.96466	204.91782	810.20996	-873.61743	275.86719	724.05634	-871.79706	252.84535	620.35974	-818.82764	141.74342	566.49359	-852.65930	247.76974	558.94037	-789.47333	204.28252	534.54291	-868.18561	261.19940	478.94070	-774.11499	232.90878	200.71620	-658.84143	299.14279	156.57736	-622.32239	306.19492	157.64943	-557.52008	252.90778	163.56233	-594.62408	219.71753	174.05937	-722.80951	160.48997	223.17238	-676.73785	176.56804	164.62047	-799.70038	185.13315	178.24117	-528.22485	303.71637	146.35994	-518.16321	-72.84168	143.10353	-876.10394	-78.29245	140.82823	-882.62024	296.05026	144.56360	
136	2.700	-250.19302	102.00639	1425.94800	-427.01077	-69.95255	1199.27441	-436.22641	262.32849	1194.87292	-566.42242	81.35345	1038.45728	-802.78192	-13.89944	989.00049	-807.49084	228.91162	1007.88770	-986.35803	82.95284	1079.54810	-879.15411	-80.40414	853.55756	-787.33350	-15.60416	800.82007	-869.20874	-71.18905	737.65869	-844.89392	-40.65010	600.95465	-815.31384	68.59286	563.29547	-838.09741	-37.60043	552.98102	-772.89954	9.43498	523.14282	-853.61841	-47.77662	463.81302	-763.68677	-20.54790	200.16501	-648.88495	-69.12681	160.39096	-607.50690	-77.90379	154.97661	-548.60284	-27.93813	163.16341	-597.06567	24.18229	169.09091	-724.95483	66.00791	220.71024	-670.68927	52.17298	164.56018	-791.70355	40.17649	171.10568	-902.04968	278.97012	858.82227	-790.21350	204.85950	810.74469	-872.27478	275.41339	724.53290	-870.53674	252.61205	620.81543	-817.59576	141.58163	566.72119	-851.57031	247.53465	559.15924	-788.47302	204.13579	534.60431	-867.34167	261.04550	479.34595	-774.07745	232.92499	200.75714	-658.86542	299.12674	156.58615	-622.34253	306.22849	157.62396	-557.54321	253.03044	163.64183	-594.56390	219.86807	174.21602	-722.67523	160.46185	223.15892	-676.75848	176.52792	164.65381	-799.70532	185.10963	178.24423	-528.22125	303.74066	146.36981	-518.14886	-72.84934	143.10716	-876.07220	-78.34585	140.89294	-882.66364	295.99622	144.53937	
137	2.720	-259.36841	102.49756	1444.29321	-432.40100	-70.39941	1213.10669	-440.63342	263.30597	1208.52991	-566.97607	82.33095	1048.21082	-800.47778	-14.08226	991.46088	-806.32068	228.97946	1010.24786	-985.97278	82.42131	1079.11536	-876.75433	-80.66723	854.19952	-784.94983	-16.05135	801.26245	-867.15894	-71.36269	738.13617	-843.22498	-40.88961	601.32855	-813.72070	68.49158	563.70447	-836.57880	-37.81504	553.35406	-771.52484	9.16953	523.38232	-852.44183	-48.06924	464.31277	-763.66327	-20.53772	200.20609	-648.91180	-69.14091	160.24117	-607.48315	-77.98148	154.93344	-548.60858	-28.04814	163.11543	-597.05334	24.11172	169.22690	-724.84033	66.00294	220.74319	-670.70782	52.20560	164.58842	-791.78186	40.16645	171.15042	-900.42285	278.53955	859.33032	-788.34814	204.89125	811.31909	-870.84491	274.99127	725.04645	-869.21759	252.41675	621.28882	-816.30054	141.45828	566.96533	-850.41553	247.36909	559.41382	-787.41833	204.01868	534.64948	-866.46515	260.90448	479.74811	-774.03839	232.95053	200.78841	-658.89154	299.10776	156.58849	-622.35809	306.26010	157.59755	-557.55188	253.16464	163.73651	-594.49200	220.05893	174.39349	-722.54749	160.44429	223.15149	-676.77051	176.49435	164.70021	-799.72638	185.06844	178.26971	-528.21643	303.76886	146.37460	-518.12524	-72.85603	143.10451	-876.04608	-78.40154	140.96312	-882.71735	295.93515	144.51764	
